<svg id="Layer_1" data-name="Layer 1" xmlns="http://www.w3.org/2000/svg" viewBox="0 0 26.6 19"><defs><style>.cls-1{fill:#007576;}</style></defs><title>Educação</title><path class="cls-1" d="M24,5.18l2.63-1L13.15,0a.39.39,0,0,0-.26,0L.28,4.22A.42.42,0,0,0,.28,5l4,1.35v7.8l.11.18c.08.14,2.12,3.41,8.65,3.41S21,14.34,21,14.2l0-.12V6.26l1.4-.52V15.5h-.83v1.92A1.58,1.58,0,0,0,23.22,19h0a1.57,1.57,0,0,0,1.57-1.58V15.5H24Zm-4.39,8.61c-.24.48-1.57,2.46-6.5,2.46s-6.82-2-7.26-2.54V6.86L12.9,9.22a.45.45,0,0,0,.28,0l6.4-2.4ZM13,7.68,3.83,4.62,13,1.55,22,4.33Zm0,0"/></svg>