<svg id="Layer_1" data-name="Layer 1" xmlns="http://www.w3.org/2000/svg" viewBox="0 0 27.83 23.34"><defs><style>.cls-1{fill:#007576;}</style></defs><title>Educação</title><path class="cls-1" d="M1,23.34H26.84a1,1,0,0,0,1-1V4.91a1,1,0,0,0-1-1h-7.5V1a1,1,0,0,0-1-1H9.49a1,1,0,0,0-1,1V4H1a1,1,0,0,0-1,1V22.38a1,1,0,0,0,1,1ZM10.47,2h6.91V4H10.47ZM2,5.9H9.25a.78.78,0,0,0,.22,0,.75.75,0,0,0,.21,0h8.44a.75.75,0,0,0,.21,0,.78.78,0,0,0,.22,0h7.29v6.75h-6.5V11.48a1,1,0,0,0-2,0v1.17H10.47V11.48a1,1,0,0,0-2,0v1.17H2Zm0,8.72H8.51v1.1a1,1,0,1,0,2,0v-1.1h6.91v1.1a1,1,0,1,0,2,0v-1.1h6.54v6.76H2Zm0,0"/></svg>