<svg id="Layer_1" data-name="Layer 1" xmlns="http://www.w3.org/2000/svg" viewBox="0 0 12.09 11.56"><defs><style>.cls-1{fill:#007576;}</style></defs><title>Linkedin</title><rect class="cls-1" x="0.15" y="3.75" width="2.6" height="7.8"/><path class="cls-1" d="M11.27,4.47a2.76,2.76,0,0,0-2.16-.9,2.84,2.84,0,0,0-.9.13A2,2,0,0,0,7.52,4a3.63,3.63,0,0,0-.44.41,3.38,3.38,0,0,0-.31.41V3.75H4.18v.38c0,.25,0,1,0,2.33s0,3,0,5.1H6.77V7.2a1.79,1.79,0,0,1,.09-.63,1.61,1.61,0,0,1,.5-.68,1.27,1.27,0,0,1,.83-.27,1.11,1.11,0,0,1,1,.47A2.2,2.2,0,0,1,9.5,7.38v4.18h2.59V7.08a3.71,3.71,0,0,0-.82-2.61Zm0,0"/><path class="cls-1" d="M1.46,0a1.49,1.49,0,0,0-1,.38,1.26,1.26,0,0,0-.41,1,1.3,1.3,0,0,0,.39,1,1.46,1.46,0,0,0,1,.38h0a1.54,1.54,0,0,0,1.07-.38,1.23,1.23,0,0,0,.39-1,1.32,1.32,0,0,0-.4-1,1.45,1.45,0,0,0-1-.38Zm0,0"/></svg>