<svg xmlns="http://www.w3.org/2000/svg" viewBox="0 0 150.24 150.24"><defs><style>.cls-1{fill:#0f7c79;}.cls-2{fill:#fff;}</style></defs><title>Asset 1</title><g id="Layer_2" data-name="Layer 2"><g id="Layer_1-2" data-name="Layer 1"><circle class="cls-1" cx="75.12" cy="75.12" r="75.12"/><path class="cls-2" d="M102.35,32.86c-8.84-8.25-19.6-6.61-30.21-6.35v8.55c4.29,0,8.28,0,12.27,0a17.7,17.7,0,1,1,0,35.4c-4,0-8,0-12.27,0V79c10.61.25,21.37,1.89,30.21-6.36,6-5.61,9.1-12.3,8.91-19.91C111.45,45.16,108.35,38.47,102.35,32.86Z"/><path class="cls-2" d="M93.8,97,75,74l-2.89,2.36v7.95L104.51,124l6.76-5.52C105.42,111.37,99.63,104.19,93.8,97Z"/><rect class="cls-2" x="57.59" y="26.47" width="9.16" height="8.91" transform="translate(93.1 -31.24) rotate(90)"/><path class="cls-2" d="M66.63,40.9H57.71c0,19.24,0,38.49-.06,57.73,0,5.06-2.46,9.15-6.26,12.38A17.43,17.43,0,0,1,39,115.14V124A26,26,0,0,0,66.38,99.72c.42-5.4,0-10.86.06-16.29Q66.51,62.18,66.63,40.9Z"/></g></g></svg>
