<svg id="Layer_1" data-name="Layer 1" xmlns="http://www.w3.org/2000/svg" viewBox="0 0 10.48 11.22"><defs><style>.cls-1{fill:#007576;fill-rule:evenodd;}</style></defs><title>Telemovel</title><path class="cls-1" d="M0,3.41A3.58,3.58,0,0,1,1.21.75c.3-.29.72-.81,1.18-.74S3.23.6,3.47,1c.42.65,1.1,1.6.47,2.33-.3.35-.76.53-1,.9A1.24,1.24,0,0,0,3,5.47,7.59,7.59,0,0,0,4.9,7.77a1.73,1.73,0,0,0,1.23.53c.48-.08.85-.6,1.19-.89.89-.72,1.86.26,2.51.85a1.47,1.47,0,0,1,.65,1.07c0,.46-.61.83-.93,1.09a3.55,3.55,0,0,1-3.05.72,6.88,6.88,0,0,1-3-1.74A14.33,14.33,0,0,1,1.12,6.64,7.51,7.51,0,0,1,.35,5.15,7.36,7.36,0,0,1,0,3.41C0,2.82,0,3.72,0,3.41Z"/></svg>